# xmcd
#
# Track frame offsets:
#	150
#	16574
#	29955
#	53396
#	72421
#	93733
#	116276
#	136394
#	152096
#	167704
#	181610
#	197467
#	209521
#
# Disc length: 2999 seconds
# Revision: 2
# Processed by: cddbd v1.5.2PL0 Copyright (c) Steve Scherf et al.
# Submitted via: dBpowerAMP V12.0
#
DISCID=a80bb50d
DTITLE=Various Artist - Ruf Records: 20 Years Anniversary [2 cd]
DYEAR=2014
DGENRE=Blues
TTITLE0=Samantha Fish - Bitch
TTITLE1=Dana Fuchs - Bliss Avenue
TTITLE2=Joanne Shaw Taylor - Can't Keep Living Like This
TTITLE3=Samantha Fish - Down In the Swamp
TTITLE4=Dani Wilde - Shine
TTITLE5=Meena - Try Me
TTITLE6=Ana Popovic - Love Fever
TTITLE7=Eliana Cargnelutti - Stranded In Memphis
TTITLE8=Joanna Connor - Never Been Rocked Enough
TTITLE9=Erja Lyytinen - Skinny Girl
TTITLE10=Sue Foley - Show Me
TTITLE11=Laura Chavez - Toughest Girl Alive
TTITLE12=Roxanne Potvin - In the Basement
EXTD=
EXTT0=
EXTT1=
EXTT2=
EXTT3=
EXTT4=
EXTT5=
EXTT6=
EXTT7=
EXTT8=
EXTT9=
EXTT10=
EXTT11=
EXTT12=
PLAYORDER=
